<?xml version="1.0" encoding="UTF-8" standalone="no"?>
<svg
   width="492"
   zoomAndPan="magnify"
   viewBox="0 0 369 98.24999"
   height="131"
   preserveAspectRatio="xMidYMid"
   version="1.0"
   id="svg46"
   sodipodi:docname="Logo- horizontal.svg"
   inkscape:version="1.3 (1:1.3+202307231459+0e150ed6c4)"
   xmlns:inkscape="http://www.inkscape.org/namespaces/inkscape"
   xmlns:sodipodi="http://sodipodi.sourceforge.net/DTD/sodipodi-0.dtd"
   xmlns="http://www.w3.org/2000/svg"
   xmlns:svg="http://www.w3.org/2000/svg">
  <sodipodi:namedview
     id="namedview46"
     pagecolor="#ffffff"
     bordercolor="#999999"
     borderopacity="1"
     inkscape:showpageshadow="0"
     inkscape:pageopacity="0"
     inkscape:pagecheckerboard="0"
     inkscape:deskcolor="#d1d1d1"
     inkscape:zoom="3.792"
     inkscape:cx="250"
     inkscape:cy="250"
     inkscape:window-width="3768"
     inkscape:window-height="2096"
     inkscape:window-x="72"
     inkscape:window-y="27"
     inkscape:window-maximized="1"
     inkscape:current-layer="svg46" />
  <defs
     id="defs6">
    <g
       id="g1" />
    <clipPath
       id="8925e70d73">
      <path
         d="M 11.136719,163 H 41 v 29 H 11.136719 Z m 0,0"
         clip-rule="nonzero"
         id="path1" />
    </clipPath>
    <clipPath
       id="0bef169b32">
      <path
         d="m 102,163 h 32.88672 v 29 H 102 Z m 0,0"
         clip-rule="nonzero"
         id="path2" />
    </clipPath>
    <clipPath
       id="12c023b517">
      <path
         d="M 11.136719,192 H 73 v 29 H 11.136719 Z m 0,0"
         clip-rule="nonzero"
         id="path3" />
    </clipPath>
    <clipPath
       id="261ef9631b">
      <path
         d="m 73,192 h 61.88672 v 29 H 73 Z m 0,0"
         clip-rule="nonzero"
         id="path4" />
    </clipPath>
    <clipPath
       id="aded202de4">
      <path
         d="M 11.136719,133.26172 H 73 V 162 H 11.136719 Z m 0,0"
         clip-rule="nonzero"
         id="path5" />
    </clipPath>
    <clipPath
       id="7f5cfb2d38">
      <path
         d="m 73,133.26172 h 61.88672 V 162 H 73 Z m 0,0"
         clip-rule="nonzero"
         id="path6" />
    </clipPath>
  </defs>
  <path
     fill="#d8d4d3"
     d="m 94.624483,54.940788 c 0,3.5625 -2.894531,6.44531 -6.464844,6.44531 H 41.292452 c -3.566407,0 -6.460938,-2.88281 -6.460938,-6.44531 v -13.69141 c 0,-3.55859 2.894531,-6.44531 6.460938,-6.44531 h 46.867187 c 3.570313,0 6.464844,2.88672 6.464844,6.44531 z m 0,0"
     fill-opacity="1"
     fill-rule="nonzero"
     id="path7"
     style="opacity:0" />
  <path
     fill="#321019"
     d="M 88.159639,62.307978 H 41.296358 c -4.074219,0 -7.386719,-3.30469 -7.386719,-7.36328 v -13.69532 c 0,-4.0625 3.3125,-7.36328 7.386719,-7.36328 h 46.863281 c 4.074219,0 7.386724,3.30078 7.386724,7.36328 v 13.69141 c 0,4.0625 -3.312505,7.36719 -7.386724,7.36719 z M 41.292452,35.722038 c -3.054688,0 -5.539063,2.48047 -5.539063,5.52734 v 13.69141 c 0,3.05078 2.484375,5.52734 5.539063,5.52734 h 46.867187 c 3.054688,0 5.542974,-2.47656 5.542974,-5.52734 v -13.69141 c 0,-3.04687 -2.488286,-5.52734 -5.542974,-5.52734 z m 0,0"
     fill-opacity="1"
     fill-rule="nonzero"
     id="path8" />
  <path
     fill="#d8d4d3"
     d="M 25.854952,34.804068 H 5.1127643 v 26.58594 H 25.854952 c 3.566406,0 6.460937,-2.88672 6.460937,-6.44531 v -13.69532 c 0,-3.55859 -2.894531,-6.44531 -6.460937,-6.44531 z m 0,0"
     fill-opacity="1"
     fill-rule="nonzero"
     id="path9"
     style="opacity:0" />
  <g
     clip-path="url(#8925e70d73)"
     id="g10"
     transform="translate(-6.9380167,-129.55921)">
    <path
       fill="#321019"
       d="M 32.792969,191.86719 H 12.050781 c -0.507812,0 -0.921875,-0.41407 -0.921875,-0.91797 v -26.58594 c 0,-0.50781 0.414063,-0.91797 0.921875,-0.91797 h 20.742188 c 4.070312,0 7.382812,3.30078 7.382812,7.36328 V 184.5 c 0,4.0625 -3.3125,7.36719 -7.382812,7.36719 z m -19.820313,-1.83985 h 19.820313 c 3.054687,0 5.539062,-2.47656 5.539062,-5.52343 v -13.69532 c 0,-3.04687 -2.484375,-5.52734 -5.539062,-5.52734 H 12.972656 Z m 0,0"
       fill-opacity="1"
       fill-rule="nonzero"
       id="path10" />
  </g>
  <path
     fill="#d8d4d3"
     d="m 127.03464,34.804068 h -23.60938 c -3.570307,0 -6.464837,2.88672 -6.464837,6.44531 v 13.69141 c 0,3.5625 2.89453,6.44531 6.464837,6.44531 h 23.60938 z m 0,0"
     fill-opacity="1"
     fill-rule="nonzero"
     id="path11"
     style="opacity:0" />
  <g
     clip-path="url(#0bef169b32)"
     id="g12"
     transform="translate(-6.9380167,-129.55921)">
    <path
       fill="#321019"
       d="m 133.97266,191.86719 h -23.60938 c -4.07422,0 -7.38672,-3.30469 -7.38672,-7.36328 v -13.69532 c 0,-4.0625 3.3125,-7.36328 7.38672,-7.36328 h 23.60938 c 0.50781,0 0.92187,0.41016 0.92187,0.91797 v 26.58594 c 0,0.5039 -0.41406,0.91797 -0.92187,0.91797 z m -23.60938,-26.58594 c -3.05859,0 -5.54297,2.48047 -5.54297,5.52734 V 184.5 c 0,3.05078 2.48438,5.52734 5.54297,5.52734 h 22.6875 v -24.74609 z m 0,0"
       fill-opacity="1"
       fill-rule="nonzero"
       id="path12" />
  </g>
  <path
     fill="#d8d4d3"
     d="m 64.905733,83.944698 c 0,3.5625 -2.894531,6.44531 -6.464844,6.44531 H 11.577608 c -3.5703127,0 -6.4648437,-2.88281 -6.4648437,-6.44531 v -13.69532 c 0,-3.55859 2.894531,-6.44531 6.4648437,-6.44531 h 46.863281 c 3.570313,0 6.464844,2.88672 6.464844,6.44531 z m 0,0"
     fill-opacity="1"
     fill-rule="nonzero"
     id="path13"
     style="opacity:0" />
  <g
     clip-path="url(#12c023b517)"
     id="g14"
     transform="translate(-6.9380167,-129.55921)">
    <path
       fill="#321019"
       d="M 65.378906,220.86719 H 18.515625 c -4.074219,0 -7.386719,-3.30078 -7.386719,-7.36328 v -13.69532 c 0,-4.05859 3.3125,-7.36328 7.386719,-7.36328 h 46.863281 c 4.074219,0 7.386719,3.30469 7.386719,7.36328 v 13.69532 c 0,4.0625 -3.3125,7.36328 -7.386719,7.36328 z M 18.515625,194.28516 c -3.058594,0 -5.542969,2.47656 -5.542969,5.52343 v 13.69532 c 0,3.04687 2.484375,5.52734 5.542969,5.52734 h 46.863281 c 3.058594,0 5.542969,-2.48047 5.542969,-5.52734 v -13.69532 c 0,-3.04687 -2.484375,-5.52343 -5.542969,-5.52343 z m 0,0"
       fill-opacity="1"
       fill-rule="nonzero"
       id="path14" />
  </g>
  <path
     fill="#d8d4d3"
     d="m 126.85495,83.944698 c 0,3.5625 -2.89453,6.44531 -6.46484,6.44531 H 73.526827 c -3.570313,0 -6.464844,-2.88281 -6.464844,-6.44531 v -13.69532 c 0,-3.55859 2.894531,-6.44531 6.464844,-6.44531 h 46.863283 c 3.57031,0 6.46484,2.88672 6.46484,6.44531 z m 0,0"
     fill-opacity="1"
     fill-rule="nonzero"
     id="path15"
     style="opacity:0" />
  <g
     clip-path="url(#261ef9631b)"
     id="g16"
     transform="translate(-6.9380167,-129.55921)">
    <path
       fill="#321019"
       d="M 127.32813,220.86719 H 80.464844 c -4.074219,0 -7.386719,-3.30078 -7.386719,-7.36328 v -13.69532 c 0,-4.05859 3.3125,-7.36328 7.386719,-7.36328 h 46.863286 c 4.07421,0 7.38671,3.30469 7.38671,7.36328 v 13.69532 c 0,4.0625 -3.3125,7.36328 -7.38671,7.36328 z M 80.464844,194.28516 c -3.058594,0 -5.542969,2.47656 -5.542969,5.52343 v 13.69532 c 0,3.04687 2.484375,5.52734 5.542969,5.52734 h 46.863286 c 3.05859,0 5.54296,-2.48047 5.54296,-5.52734 v -13.69532 c 0,-3.04687 -2.48437,-5.52343 -5.54296,-5.52343 z m 0,0"
       fill-opacity="1"
       fill-rule="nonzero"
       id="path16" />
  </g>
  <path
     fill="#d8d4d3"
     d="m 64.905733,24.901728 c 0,3.55859 -2.894531,6.44531 -6.464844,6.44531 H 11.577608 c -3.5703127,0 -6.4648437,-2.88672 -6.4648437,-6.44531 v -13.69532 c 0,-3.5585904 2.894531,-6.4453104 6.4648437,-6.4453104 h 46.863281 c 3.570313,0 6.464844,2.88672 6.464844,6.4453104 z m 0,0"
     fill-opacity="1"
     fill-rule="nonzero"
     id="path17"
     style="opacity:0" />
  <g
     clip-path="url(#aded202de4)"
     id="g18"
     transform="translate(-6.9380167,-129.55921)">
    <path
       fill="#321019"
       d="M 65.378906,161.82422 H 18.515625 c -4.074219,0 -7.386719,-3.30469 -7.386719,-7.36328 v -13.69532 c 0,-4.05859 3.3125,-7.36328 7.386719,-7.36328 h 46.863281 c 4.074219,0 7.386719,3.30469 7.386719,7.36328 v 13.69532 c 0,4.0625 -3.3125,7.36328 -7.386719,7.36328 z M 18.515625,135.24219 c -3.058594,0 -5.542969,2.47656 -5.542969,5.52343 v 13.69532 c 0,3.04687 2.484375,5.52734 5.542969,5.52734 h 46.863281 c 3.058594,0 5.542969,-2.48047 5.542969,-5.52734 v -13.69532 c 0,-3.04687 -2.484375,-5.52343 -5.542969,-5.52343 z m 0,0"
       fill-opacity="1"
       fill-rule="nonzero"
       id="path18" />
  </g>
  <path
     fill="#d8d4d3"
     d="m 126.85495,24.901728 c 0,3.55859 -2.89453,6.44531 -6.46484,6.44531 H 73.526827 c -3.570313,0 -6.464844,-2.88672 -6.464844,-6.44531 v -13.69532 c 0,-3.5585904 2.894531,-6.4453104 6.464844,-6.4453104 h 46.863283 c 3.57031,0 6.46484,2.88672 6.46484,6.4453104 z m 0,0"
     fill-opacity="1"
     fill-rule="nonzero"
     id="path19"
     style="opacity:0" />
  <g
     clip-path="url(#7f5cfb2d38)"
     id="g20"
     transform="translate(-6.9380167,-129.55921)">
    <path
       fill="#321019"
       d="M 127.32813,161.82422 H 80.464844 c -4.074219,0 -7.386719,-3.30469 -7.386719,-7.36328 v -13.69532 c 0,-4.05859 3.3125,-7.36328 7.386719,-7.36328 h 46.863286 c 4.07421,0 7.38671,3.30469 7.38671,7.36328 v 13.69532 c 0,4.0625 -3.3125,7.36328 -7.38671,7.36328 z M 80.464844,135.24219 c -3.058594,0 -5.542969,2.47656 -5.542969,5.52343 v 13.69532 c 0,3.04687 2.484375,5.52734 5.542969,5.52734 h 46.863286 c 3.05859,0 5.54296,-2.48047 5.54296,-5.52734 v -13.69532 c 0,-3.04687 -2.48437,-5.52343 -5.54296,-5.52343 z m 0,0"
       fill-opacity="1"
       fill-rule="nonzero"
       id="path20" />
  </g>
  <path
     fill="#d8d4d3"
     d="m 38.034639,46.604848 v -3.03515 c 0,-3.14844 2.558594,-5.70313 5.71875,-5.70313 h 6.214844"
     fill-opacity="1"
     fill-rule="nonzero"
     id="path21"
     style="opacity:0" />
  <path
     fill="#ffffff"
     d="m 38.034639,47.640008 c -0.574218,0 -1.039062,-0.46485 -1.039062,-1.03516 v -3.03515 c 0,-3.71485 3.03125,-6.73829 6.757812,-6.73829 h 6.214844 c 0.574219,0 1.035156,0.46485 1.035156,1.03516 0,0.57031 -0.460937,1.03516 -1.035156,1.03516 h -6.214844 c -2.582031,0 -4.683594,2.09375 -4.683594,4.66797 v 3.03515 c 0,0.57031 -0.464843,1.03516 -1.035156,1.03516 z m 0,0"
     fill-opacity="1"
     fill-rule="nonzero"
     id="path22"
     style="opacity:0" />
  <g
     fill="#000000"
     fill-opacity="1"
     id="g25"
     transform="translate(-6.9380167,-129.55921)">
    <g
       transform="translate(142.31101,195.82954)"
       id="g24">
      <g
         id="g23">
        <path
           d="M 18.691406,-38.25 H 4.957031 V 0 h 4.738281 v -14.816406 h 8.996094 c 8.566406,0 13.578125,-4.414063 13.578125,-11.851563 0,-7.269531 -5.011719,-11.582031 -13.578125,-11.582031 z m -8.996094,18.800781 v -14.167969 h 8.996094 c 5.765625,0 8.621094,2.316407 8.621094,6.949219 0,4.796875 -2.855469,7.21875 -8.621094,7.21875 z m 0,0"
           id="path23" />
      </g>
    </g>
  </g>
  <g
     fill="#000000"
     fill-opacity="1"
     id="g28"
     transform="translate(-6.9380167,-129.55921)">
    <g
       transform="translate(177.37981,195.82954)"
       id="g27">
      <g
         id="g26">
        <path
           d="M 4.308594,-28.550781 V 0 h 4.632812 v -17.023438 c 0,-4.902343 1.996094,-7.433593 6.359375,-7.433593 h 2.800781 v -4.09375 h -2.800781 c -3.71875,0 -5.820312,1.613281 -6.734375,5.117187 l -0.164062,-5.117187 z m 0,0"
           id="path25" />
      </g>
    </g>
  </g>
  <g
     fill="#000000"
     fill-opacity="1"
     id="g31"
     transform="translate(-6.9380167,-129.55921)">
    <g
       transform="translate(198.01168,195.82954)"
       id="g30">
      <g
         id="g29">
        <path
           d="m 15.621094,0.644531 c 7.921875,0 13.09375,-5.816406 13.09375,-14.921875 0,-9.101562 -5.171875,-14.921875 -13.09375,-14.921875 -7.917969,0 -13.089844,5.820313 -13.089844,14.921875 0,9.105469 5.171875,14.921875 13.089844,14.921875 z M 7.378906,-14.277344 c 0,-6.570312 3.019532,-10.503906 8.242188,-10.503906 5.226562,0 8.242187,3.933594 8.242187,10.503906 0,6.574219 -3.015625,10.507813 -8.242187,10.507813 -5.222656,0 -8.242188,-3.933594 -8.242188,-10.507813 z m 0,0"
           id="path28" />
      </g>
    </g>
  </g>
  <g
     fill="#000000"
     fill-opacity="1"
     id="g34"
     transform="translate(-6.9380167,-129.55921)">
    <g
       transform="translate(229.25577,195.82954)"
       id="g33">
      <g
         id="g32">
        <path
           d="m 4.308594,8.082031 h 4.632812 v -11.90625 c 1.5625,2.960938 4.527344,4.46875 8.460938,4.46875 8.5625,0 12.335937,-7.109375 12.335937,-14.921875 0,-7.808594 -3.773437,-14.921875 -12.335937,-14.921875 -4.148438,0 -7.167969,1.726563 -8.730469,4.796875 L 8.511719,-28.550781 H 4.308594 Z m 4.09375,-22.359375 c 0,-5.277344 2.371094,-10.503906 8.191406,-10.503906 5.871094,0 8.1875,5.171875 8.1875,10.503906 0,5.335938 -2.316406,10.507813 -8.1875,10.507813 -5.820312,0 -8.191406,-5.226563 -8.191406,-10.507813 z m 0,0"
           id="path31" />
      </g>
    </g>
  </g>
  <g
     fill="#000000"
     fill-opacity="1"
     id="g37">
    <g
       transform="translate(261.52337,195.82954)"
       id="g36">
      <g
         id="g35" />
    </g>
  </g>
  <g
     fill="#000000"
     fill-opacity="1"
     id="g40"
     transform="translate(-6.9380167,-129.55921)">
    <g
       transform="translate(274.99064,195.82954)"
       id="g39">
      <g
         id="g38">
        <path
           d="M 16.808594,-38.25 H 4.957031 V 0 h 12.175781 c 11.632813,0 18.097657,-6.839844 18.097657,-19.070312 0,-12.28125 -6.625,-19.179688 -18.421875,-19.179688 z M 9.695312,-4.632812 v -28.984376 h 7.113282 c 8.996094,0 13.46875,4.796876 13.46875,14.546876 0,9.644531 -4.472656,14.4375 -13.46875,14.4375 z m 0,0"
           id="path37" />
      </g>
    </g>
  </g>
  <g
     fill="#000000"
     fill-opacity="1"
     id="g43"
     transform="translate(-6.9380167,-129.55921)">
    <g
       transform="translate(312.86062,195.82954)"
       id="g42">
      <g
         id="g41">
        <path
           d="m 15.621094,0.644531 c 7.921875,0 13.09375,-5.816406 13.09375,-14.921875 0,-9.101562 -5.171875,-14.921875 -13.09375,-14.921875 -7.917969,0 -13.089844,5.820313 -13.089844,14.921875 0,9.105469 5.171875,14.921875 13.089844,14.921875 z M 7.378906,-14.277344 c 0,-6.570312 3.019532,-10.503906 8.242188,-10.503906 5.226562,0 8.242187,3.933594 8.242187,10.503906 0,6.574219 -3.015625,10.507813 -8.242187,10.507813 -5.222656,0 -8.242188,-3.933594 -8.242188,-10.507813 z m 0,0"
           id="path40" />
      </g>
    </g>
  </g>
  <g
     fill="#000000"
     fill-opacity="1"
     id="g46"
     transform="translate(-6.9380167,-129.55921)">
    <g
       transform="translate(344.10471,195.82954)"
       id="g45">
      <g
         id="g44">
        <path
           d="m 22.679688,-18.960938 4.847656,-0.324218 c -0.753906,-6.140625 -6.085938,-9.914063 -11.90625,-9.914063 -7.917969,0 -13.089844,5.820313 -13.089844,14.921875 0,9.105469 5.171875,14.921875 13.089844,14.921875 6.035156,0 11.261718,-3.984375 12.175781,-10.449219 l -4.902344,-0.324218 c -0.644531,4.042968 -3.714843,6.359375 -7.273437,6.359375 -5.222656,0 -8.242188,-3.933594 -8.242188,-10.507813 0,-6.570312 3.019532,-10.503906 8.242188,-10.503906 3.394531,0 6.464844,2.15625 7.058594,5.820312 z m 0,0"
           id="path43" />
      </g>
    </g>
  </g>
  <rect
     style="opacity:0;fill:none;fill-opacity:0.294319;stroke-width:11.3386"
     id="rect46"
     width="159.0106"
     height="73.354691"
     x="9.0903263"
     y="128.67667"
     ry="10.355325" />
</svg>
